{"glyphs":{"0":{"ha":665,"x_min":86,"x_max":578,"o":"m 486 739 l 486 644 l 578 644 l 578 92 l 486 92 l 486 0 l 176 0 l 176 92 l 86 92 l 86 644 l 176 644 l 176 739 l 486 739 m 454 614 l 210 614 l 210 124 l 454 124 l 454 614 z "},"1":{"ha":403,"x_min":82,"x_max":318,"o":"m 318 736 l 318 -1 l 194 -1 l 194 614 l 82 614 l 82 738 l 318 736 z "},"2":{"ha":647,"x_min":75,"x_max":565,"o":"m 565 -1 l 75 -1 l 75 124 l 196 124 l 196 257 l 282 257 l 282 378 l 364 378 l 364 489 l 446 489 l 446 614 l 194 614 l 194 490 l 76 490 l 76 646 l 176 646 l 176 738 l 458 738 l 458 646 l 564 646 l 564 481 l 482 481 l 482 367 l 400 367 l 400 247 l 314 247 l 314 124 l 565 124 l 565 -1 z "},"3":{"ha":671,"x_min":90,"x_max":582,"o":"m 476 89 l 476 -3 l 193 -3 l 193 89 l 93 89 l 93 244 l 211 244 l 211 122 l 464 122 l 464 368 l 217 368 l 217 489 l 460 489 l 460 614 l 208 614 l 208 538 l 90 538 l 90 646 l 190 646 l 190 738 l 472 738 l 472 646 l 579 646 l 579 481 l 488 481 l 488 399 l 582 399 l 582 89 l 476 89 z "},"4":{"ha":631,"x_min":54,"x_max":547,"o":"m 179 739 l 179 492 l 422 492 l 422 739 l 547 739 l 547 0 l 422 0 l 422 367 l 54 367 l 54 739 l 179 739 z "},"5":{"ha":664,"x_min":86,"x_max":575,"o":"m 469 89 l 469 -3 l 186 -3 l 186 89 l 86 89 l 86 244 l 204 244 l 204 122 l 457 122 l 457 368 l 86 368 l 88 736 l 575 736 l 575 614 l 204 614 l 204 489 l 481 489 l 481 399 l 575 399 l 575 89 l 469 89 z "},"6":{"ha":646,"x_min":88,"x_max":575,"o":"m 472 489 l 472 397 l 575 397 l 575 88 l 472 88 l 472 -3 l 190 -3 l 190 88 l 88 88 l 88 644 l 193 644 l 193 736 l 472 736 l 472 611 l 206 611 l 206 489 l 472 489 m 206 122 l 457 122 l 457 364 l 206 364 l 206 122 z "},"7":{"ha":617,"x_min":90,"x_max":581,"o":"m 211 -1 l 90 -1 l 90 133 l 149 133 l 149 257 l 235 257 l 235 378 l 315 378 l 315 489 l 399 489 l 399 613 l 90 613 l 90 738 l 581 738 l 581 613 l 517 613 l 517 481 l 433 481 l 433 367 l 353 367 l 353 247 l 267 247 l 267 124 l 211 124 l 211 -1 z "},"8":{"ha":654,"x_min":83,"x_max":571,"o":"m 186 -3 l 186 89 l 83 89 l 83 399 l 158 399 l 158 488 l 83 488 l 83 646 l 185 646 l 185 736 l 468 736 l 468 646 l 571 646 l 571 488 l 500 488 l 500 399 l 571 399 l 571 89 l 468 89 l 468 -3 l 186 -3 m 447 489 l 447 613 l 207 613 l 207 489 l 447 489 m 453 364 l 201 364 l 201 122 l 453 122 l 453 364 z "},"9":{"ha":656,"x_min":82,"x_max":571,"o":"m 185 244 l 185 336 l 82 336 l 82 646 l 185 646 l 185 736 l 468 736 l 468 646 l 571 646 l 571 89 l 465 89 l 465 -3 l 185 -3 l 185 122 l 453 122 l 453 244 l 185 244 m 453 611 l 200 611 l 200 371 l 453 371 l 453 611 z "},"B":{"ha":656,"x_min":82,"x_max":575,"o":"m 479 739 l 479 644 l 575 644 l 575 488 l 506 488 l 506 369 l 575 369 l 575 94 l 479 94 l 479 -1 q 281 -1 379 -1 q 82 0 182 0 l 82 739 l 479 739 m 450 367 l 207 367 l 207 124 l 450 124 l 450 367 m 450 613 l 207 613 l 207 492 l 450 492 l 450 613 z "},"C":{"ha":663,"x_min":85,"x_max":576,"o":"m 576 739 l 576 489 l 453 489 l 453 613 l 208 613 l 208 124 l 572 124 l 572 -1 l 172 -1 l 172 88 l 85 88 l 85 644 l 172 644 l 172 739 l 576 739 z "},"D":{"ha":656,"x_min":90,"x_max":583,"o":"m 489 739 l 489 644 l 583 644 l 583 92 l 489 92 l 489 0 l 90 0 l 90 739 l 489 739 m 458 614 l 214 614 l 214 124 l 458 124 l 458 614 z "},"E":{"ha":703,"x_min":115,"x_max":607,"o":"m 607 739 l 607 614 l 240 614 l 240 492 l 521 492 l 521 367 l 240 367 l 240 124 l 607 124 l 607 -1 l 115 0 l 115 739 l 607 739 z "},"F":{"ha":631,"x_min":99,"x_max":590,"o":"m 590 739 l 590 614 l 222 614 l 222 492 l 504 492 l 504 367 l 222 367 l 222 0 l 99 0 l 99 739 l 590 739 z "},"G":{"ha":663,"x_min":82,"x_max":575,"o":"m 174 -1 l 174 94 l 82 94 l 82 644 l 174 644 l 174 739 l 569 739 l 569 614 l 206 614 l 206 125 l 450 125 l 450 375 l 575 375 l 575 -1 l 174 -1 z "},"H":{"ha":679,"x_min":100,"x_max":592,"o":"m 224 739 l 224 492 l 468 492 l 468 739 l 592 739 l 592 0 l 468 0 l 468 367 l 224 367 l 224 0 l 100 0 l 100 739 l 224 739 z "},"I":{"ha":324,"x_min":100,"x_max":225,"o":"m 225 739 l 225 0 l 100 0 l 100 739 l 225 739 z "},"|":{"ha":686,"x_min":106,"x_max":596,"o":"m 596 613 l 413 613 l 413 124 l 596 124 l 596 -1 l 106 -1 l 106 124 l 289 124 l 289 613 l 106 613 l 106 738 l 596 738 l 596 613 z "},"J":{"ha":663,"x_min":82,"x_max":575,"o":"m 82 -1 l 82 125 l 450 125 l 450 614 l 86 614 l 86 739 l 575 738 l 575 94 l 483 94 l 483 -1 l 82 -1 z "},"K":{"ha":671,"x_min":94,"x_max":588,"o":"m 219 739 l 219 492 l 339 492 l 339 617 l 463 617 l 463 739 l 588 739 l 588 582 l 493 582 l 493 489 l 406 489 l 406 369 l 493 369 l 493 275 l 588 275 l 588 0 l 463 0 l 463 247 l 339 247 l 339 367 l 219 367 l 219 0 l 94 0 l 94 739 l 219 739 z "},"L":{"ha":624,"x_min":89,"x_max":582,"o":"m 214 124 l 582 124 l 582 -1 l 89 0 l 89 738 l 214 738 l 214 124 z "},"M":{"ha":789,"x_min":92,"x_max":708,"o":"m 217 739 l 217 615 l 290 615 l 290 492 l 371 492 l 371 369 l 431 369 l 431 492 l 510 492 l 510 615 l 583 615 l 583 739 l 708 739 l 708 0 l 583 0 l 583 490 l 543 490 l 543 367 l 458 367 l 458 244 l 342 244 l 342 367 l 257 367 l 257 490 l 217 490 l 217 0 l 92 0 l 92 739 l 217 739 z "},"N":{"ha":671,"x_min":94,"x_max":588,"o":"m 219 739 l 219 613 l 321 613 l 321 490 l 400 490 l 400 372 l 463 372 l 463 739 l 588 739 l 588 0 l 463 0 l 463 247 l 361 247 l 361 367 l 282 367 l 282 489 l 219 489 l 219 0 l 94 0 l 94 739 l 219 739 z "},"O":{"ha":663,"x_min":86,"x_max":578,"o":"m 486 739 l 486 644 l 578 644 l 578 92 l 486 92 l 486 0 l 176 0 l 176 92 l 86 92 l 86 644 l 176 644 l 176 739 l 486 739 m 454 614 l 210 614 l 210 124 l 454 124 l 454 614 z "},"P":{"ha":639,"x_min":82,"x_max":575,"o":"m 82 -1 l 82 738 q 280 738 182 738 q 478 739 378 739 l 478 643 l 575 643 l 575 368 l 506 368 l 506 250 l 207 246 l 207 0 l 82 -1 m 450 614 l 207 614 l 207 371 l 450 371 l 450 614 z "},"Q":{"ha":671,"x_min":88,"x_max":581,"o":"m 488 739 l 488 644 l 579 644 l 579 92 l 488 92 l 488 21 l 581 21 l 581 -103 l 463 -103 l 463 0 l 178 0 l 178 92 l 88 92 l 88 644 l 178 644 l 178 739 l 488 739 m 392 124 l 456 124 l 456 614 l 211 614 l 211 124 l 274 124 l 274 244 l 392 244 l 392 124 z "},"R":{"ha":679,"x_min":99,"x_max":592,"o":"m 592 275 l 592 0 l 467 0 l 467 247 l 371 247 l 371 367 l 224 367 l 224 -1 l 99 0 l 99 739 l 494 739 l 494 644 l 592 644 l 592 453 l 496 453 q 496 404 496 425 q 497 363 496 383 q 497 322 497 343 q 497 275 497 301 l 592 275 m 467 613 l 224 613 l 224 492 l 467 492 l 467 613 z "},"S":{"ha":663,"x_min":79,"x_max":572,"o":"m 571 738 l 571 613 l 204 613 l 204 492 l 479 492 l 479 400 l 572 400 l 572 92 l 479 92 l 479 -1 l 79 -1 l 79 124 l 447 124 l 447 367 l 171 368 l 171 457 l 79 457 l 79 646 l 171 646 l 171 739 l 571 738 z "},"T":{"ha":568,"x_min":38,"x_max":526,"o":"m 526 613 l 344 613 l 344 -3 l 219 -3 l 219 613 l 38 613 l 38 738 l 526 738 l 526 613 z "},"U":{"ha":664,"x_min":88,"x_max":581,"o":"m 581 92 l 489 92 l 489 0 l 179 0 l 179 92 l 88 92 l 88 736 l 213 736 l 213 124 l 456 124 l 456 736 l 581 736 l 581 92 z "},"V":{"ha":663,"x_min":86,"x_max":579,"o":"m 211 739 l 211 247 l 297 247 l 297 122 l 367 122 l 367 247 l 454 247 l 454 739 l 579 739 l 579 213 l 492 213 l 492 104 l 396 104 l 396 0 l 271 0 l 271 104 l 174 104 l 174 213 l 86 213 l 86 739 l 211 739 z "},"W":{"ha":781,"x_min":83,"x_max":699,"o":"m 575 0 l 575 124 l 501 124 l 501 247 l 421 247 l 421 369 l 361 369 l 361 247 l 282 247 l 282 124 l 208 124 l 208 0 l 83 0 l 83 739 l 208 739 l 208 247 l 247 247 l 247 371 l 332 371 l 332 493 l 450 493 l 450 371 l 535 371 l 535 247 l 575 247 l 575 739 l 699 739 l 699 0 l 575 0 z "},"X":{"ha":679,"x_min":99,"x_max":593,"o":"m 308 617 l 308 514 l 383 514 l 383 617 l 468 617 l 468 739 l 593 739 l 593 582 l 499 582 l 499 489 l 433 489 l 433 369 l 499 369 l 499 275 l 593 275 l 593 0 l 468 0 l 468 247 l 383 247 l 383 336 l 308 336 l 308 247 l 224 247 l 224 0 l 99 0 l 99 275 l 193 275 l 193 369 l 258 369 l 258 489 l 193 489 l 193 582 l 99 582 l 99 739 l 224 739 l 224 617 l 308 617 z "},"Y":{"ha":647,"x_min":83,"x_max":578,"o":"m 268 0 l 268 369 l 178 369 l 178 464 l 83 464 l 83 739 l 208 739 l 208 490 l 293 490 l 293 403 l 368 403 l 368 490 l 454 490 l 454 739 l 578 739 l 578 464 l 483 464 l 483 369 l 393 369 l 393 0 l 268 0 z "},"Z":{"ha":632,"x_min":74,"x_max":564,"o":"m 564 613 l 500 613 l 500 481 l 417 481 l 417 367 l 336 367 l 336 247 l 250 247 l 250 124 l 564 124 l 564 -1 l 74 -1 l 74 124 l 131 124 l 131 257 l 218 257 l 218 378 l 299 378 l 299 489 l 382 489 l 382 613 l 74 613 l 74 738 l 564 738 l 564 613 z "},"a":{"ha":686,"x_min":103,"x_max":592,"o":"m 489 493 l 489 401 l 592 401 l 592 1 l 206 1 l 206 92 l 103 92 l 103 281 l 474 281 l 474 368 l 206 368 l 206 493 l 489 493 m 474 218 l 221 218 l 221 126 l 474 126 l 474 218 z "},"b":{"ha":671,"x_min":94,"x_max":582,"o":"m 218 742 l 218 492 l 479 492 l 479 400 l 582 400 l 582 92 l 479 92 l 479 1 q 285 2 381 1 q 94 3 190 3 l 94 742 l 218 742 m 218 126 l 464 126 l 464 365 l 218 365 l 218 126 z "},"c":{"ha":664,"x_min":86,"x_max":575,"o":"m 575 493 l 575 368 l 204 368 l 204 126 l 575 126 l 575 1 l 189 1 l 189 92 l 86 92 l 86 401 l 189 401 l 189 493 l 575 493 z "},"d":{"ha":694,"x_min":108,"x_max":597,"o":"m 597 739 l 597 3 q 405 2 500 3 q 211 1 310 1 l 211 92 l 108 92 l 108 401 l 211 401 l 211 494 l 472 494 l 472 739 l 597 739 m 472 368 l 226 368 l 226 126 l 472 126 l 472 368 z "},"e":{"ha":669,"x_min":100,"x_max":588,"o":"m 203 1 l 203 93 l 100 93 l 100 403 l 203 403 l 203 493 l 485 493 l 485 403 l 588 403 l 588 217 l 218 218 l 218 126 l 486 126 l 486 1 l 203 1 m 218 279 l 469 279 l 469 367 l 218 367 l 218 279 z "},"f":{"ha":647,"x_min":113,"x_max":601,"o":"m 231 1 l 113 1 l 113 651 l 215 651 l 215 742 l 499 742 l 499 651 l 601 651 l 601 457 l 483 457 l 483 617 l 231 617 l 231 371 l 439 371 l 439 247 l 231 247 l 231 1 z "},"g":{"ha":671,"x_min":89,"x_max":578,"o":"m 192 1 l 192 93 l 89 93 l 89 400 l 192 400 l 192 492 l 453 492 l 453 617 l 578 617 l 578 468 l 475 468 l 475 400 l 578 400 l 578 -154 l 472 -154 l 472 -246 l 193 -246 l 193 -121 l 460 -121 l 460 1 l 192 1 m 460 365 l 207 365 l 207 126 l 460 126 l 460 365 z "},"h":{"ha":688,"x_min":111,"x_max":600,"o":"m 236 743 l 236 493 l 497 493 l 497 401 l 600 401 l 600 0 l 482 0 l 482 368 l 236 368 l 236 0 l 111 0 l 111 743 l 236 743 z "},"i":{"ha":347,"x_min":115,"x_max":240,"o":"m 240 492 l 240 3 l 115 3 l 115 492 l 240 492 m 240 740 l 240 617 l 115 617 l 115 740 l 240 740 z "},"j":{"ha":339,"x_min":6,"x_max":236,"o":"m 236 492 l 236 3 l 236 -157 l 133 -157 l 133 -247 l 6 -247 l 6 -121 l 111 -119 l 111 494 l 236 492 m 111 740 l 236 740 l 236 617 l 111 617 l 111 740 z "},"k":{"ha":688,"x_min":101,"x_max":592,"o":"m 226 743 l 228 372 l 364 372 l 364 494 l 467 494 l 467 619 l 592 619 l 592 461 l 489 461 l 489 281 l 592 281 l 590 0 l 472 0 l 474 247 l 228 247 l 226 0 l 101 0 l 101 743 l 226 743 z "},"l":{"ha":339,"x_min":113,"x_max":238,"o":"m 238 743 l 238 3 l 113 3 l 113 743 l 238 743 z "},"m":{"ha":813,"x_min":96,"x_max":718,"o":"m 615 493 l 615 401 l 718 401 l 718 0 l 600 0 l 600 368 l 468 368 l 468 0 l 350 0 l 350 368 l 221 368 l 221 0 l 96 0 l 96 492 l 615 493 z "},"n":{"ha":679,"x_min":93,"x_max":582,"o":"m 479 493 l 479 401 l 582 401 l 582 0 l 464 0 l 464 368 l 218 368 l 218 0 l 93 0 l 93 492 l 479 493 z "},"o":{"ha":663,"x_min":89,"x_max":578,"o":"m 475 493 l 475 401 l 578 401 l 578 92 l 475 92 l 475 1 l 192 1 l 192 92 l 89 92 l 89 401 l 192 401 l 192 493 l 475 493 m 207 126 l 460 126 l 460 368 l 207 368 l 207 126 z "},"p":{"ha":679,"x_min":108,"x_max":597,"o":"m 108 -250 l 108 490 q 301 491 206 490 q 494 492 396 492 l 494 401 l 597 401 l 597 92 l 494 92 l 494 0 l 233 0 l 233 -250 l 108 -250 m 233 126 l 479 126 l 479 367 l 233 367 l 233 126 z "},"q":{"ha":678,"x_min":104,"x_max":592,"o":"m 468 -250 l 468 0 l 207 0 l 207 92 l 104 92 l 104 401 l 207 401 l 207 492 q 401 491 306 492 q 592 490 496 490 l 592 -250 l 468 -250 m 468 367 l 222 367 l 222 126 l 468 126 l 468 367 z "},"r":{"ha":640,"x_min":93,"x_max":582,"o":"m 479 493 l 479 401 l 582 401 l 582 251 l 464 251 l 464 368 l 218 368 l 218 0 l 93 0 l 93 492 l 479 493 z "},"s":{"ha":671,"x_min":94,"x_max":588,"o":"m 586 497 l 586 372 l 219 372 l 219 281 l 588 279 l 588 93 l 494 93 l 494 1 l 94 1 l 94 125 l 463 125 l 463 218 l 94 218 l 94 406 l 186 406 l 186 499 l 586 497 z "},"t":{"ha":553,"x_min":97,"x_max":468,"o":"m 215 499 l 468 499 l 468 374 l 215 374 l 215 128 l 467 128 l 465 1 l 200 1 l 200 92 l 97 92 l 97 617 l 215 617 l 215 499 z "},"u":{"ha":663,"x_min":85,"x_max":574,"o":"m 188 0 l 188 92 l 85 92 l 85 493 l 203 493 l 203 126 l 449 126 l 449 493 l 574 493 l 574 3 l 188 0 z "},"v":{"ha":663,"x_min":90,"x_max":579,"o":"m 90 493 l 208 493 l 208 253 l 282 253 l 282 125 l 382 125 l 382 253 l 454 253 l 454 493 l 579 493 l 579 221 l 504 221 l 504 97 l 396 97 l 396 1 l 274 1 l 274 97 l 160 97 l 160 221 l 90 221 l 90 493 z "},"w":{"ha":806,"x_min":99,"x_max":719,"o":"m 201 0 l 201 92 l 99 92 l 99 493 l 217 493 l 217 126 l 347 126 l 347 493 l 465 493 l 465 126 l 596 126 l 596 493 l 719 493 l 719 3 l 201 0 z "},"x":{"ha":686,"x_min":86,"x_max":590,"o":"m 211 494 l 211 311 l 465 311 l 465 494 l 590 494 l 590 325 l 500 325 l 500 168 l 590 168 l 590 3 l 465 3 l 465 186 l 211 186 l 211 3 l 86 3 l 86 168 l 174 168 l 174 325 l 86 325 l 86 494 l 211 494 z "},"y":{"ha":686,"x_min":106,"x_max":594,"o":"m 208 1 l 208 93 l 106 93 l 106 492 l 224 492 l 224 126 l 476 126 l 476 492 l 594 492 l 594 -154 l 489 -154 l 489 -246 l 210 -246 l 210 -121 l 476 -121 l 476 1 l 208 1 z "},"z":{"ha":671,"x_min":94,"x_max":588,"o":"m 96 497 l 588 497 l 588 371 l 463 371 l 461 218 l 344 218 l 344 126 l 588 125 l 588 1 l 94 1 l 94 128 l 219 128 l 219 278 l 336 279 l 338 372 l 96 372 l 96 497 z "},".":{"ha":347,"x_min":124,"x_max":250,"o":"m 250 128 l 250 1 l 124 1 l 124 128 l 250 128 z "},"!":{"ha":285,"x_min":82,"x_max":206,"o":"m 206 743 l 206 251 l 82 251 l 82 743 l 206 743 m 206 3 l 82 3 l 82 126 l 206 126 l 206 3 z "},"?":{"ha":663,"x_min":96,"x_max":585,"o":"m 403 372 l 403 251 l 278 251 l 278 493 l 467 493 l 467 617 l 214 617 l 214 542 l 96 542 l 96 649 l 196 649 l 196 742 l 479 742 l 479 649 l 585 649 l 585 483 l 493 483 l 493 372 l 403 372 m 403 3 l 278 3 l 278 126 l 403 126 l 403 3 z "},"_":{"ha":671,"x_min":93,"x_max":586,"o":"m 93 128 l 586 125 l 586 1 l 93 1 l 93 128 z "},",":{"ha":324,"x_min":100,"x_max":225,"o":"m 225 128 l 225 -125 l 100 -125 l 100 128 l 225 128 z "},"-":{"ha":671,"x_min":89,"x_max":583,"o":"m 90 381 l 583 376 l 583 253 l 89 253 l 90 381 z "},"+":{"ha":671,"x_min":99,"x_max":592,"o":"m 99 381 l 282 379 l 282 563 l 408 563 l 407 378 l 592 376 l 592 253 l 407 253 l 406 69 l 281 69 l 282 253 l 99 253 l 99 381 z "},"=":{"ha":664,"x_min":92,"x_max":586,"o":"m 93 492 l 586 489 l 586 364 l 92 364 l 93 492 m 93 253 l 586 249 l 586 125 l 92 125 l 93 253 z "},"~":{"ha":742,"x_min":82,"x_max":660,"o":"m 438 251 l 531 251 l 531 382 l 660 382 l 660 246 l 565 244 l 565 128 l 404 126 l 404 244 l 308 244 l 308 368 l 211 368 l 211 246 l 82 244 l 82 382 l 178 382 l 178 492 l 339 493 l 340 382 l 438 382 l 438 251 z "},"\"":{"ha":544,"x_min":88,"x_max":461,"o":"m 213 739 l 213 486 l 88 486 l 88 739 l 213 739 m 461 739 l 461 486 l 336 486 l 336 739 l 461 739 z "},"@":{"ha":1157,"x_min":83,"x_max":1075,"o":"m 721 492 l 721 400 l 824 400 l 824 124 l 950 124 l 950 617 l 207 617 l 207 1 l 83 1 l 83 628 l 185 628 l 185 742 l 975 742 l 975 628 l 1075 628 l 1075 1 q 758 1 918 1 q 438 0 597 0 l 438 90 l 335 90 l 335 279 l 706 278 l 706 367 l 438 367 l 438 492 l 721 492 m 706 217 l 453 217 l 453 125 l 706 125 l 706 217 z "},"©":{"ha":1157,"x_min":93,"x_max":1085,"o":"m 93 628 l 194 628 l 194 742 l 985 742 l 985 628 l 1085 628 l 1085 108 l 985 108 l 985 1 l 194 1 l 194 108 l 93 108 l 93 628 m 447 554 l 447 463 l 344 463 l 344 279 l 447 279 l 447 189 l 833 189 l 833 314 l 463 314 l 463 429 l 833 429 l 833 554 l 447 554 m 960 124 l 960 617 l 218 617 l 218 124 l 960 124 z "},"®":{"ha":1213,"x_min":114,"x_max":1107,"o":"m 114 628 l 217 628 l 217 742 l 1007 742 l 1007 628 l 1107 628 l 1107 108 l 1007 108 l 1007 1 l 217 1 l 217 108 l 114 108 l 114 628 m 636 194 l 489 194 l 489 124 l 636 124 l 636 194 m 364 567 l 760 567 l 760 472 l 857 472 l 857 281 l 761 281 q 761 238 761 257 q 762 200 761 218 q 763 164 763 182 q 763 124 763 146 l 982 124 l 982 617 l 239 617 l 239 124 l 364 124 l 364 567 m 732 440 l 489 440 l 489 319 l 732 319 l 732 440 z "},"#":{"ha":772,"x_min":85,"x_max":696,"o":"m 325 742 l 325 614 l 454 613 l 454 742 l 579 742 l 579 613 l 696 613 l 696 488 l 579 488 l 579 374 l 696 372 l 696 249 l 579 249 l 579 124 l 454 124 l 454 249 l 325 249 l 325 124 l 200 124 l 200 249 l 85 249 l 85 375 l 200 375 l 200 488 l 85 488 l 85 615 l 200 614 l 200 742 l 325 742 m 325 488 l 325 375 l 454 374 l 454 488 l 325 488 z "},"$":{"ha":640,"x_min":76,"x_max":569,"o":"m 260 619 l 260 742 l 261 742 l 385 742 l 386 742 l 386 619 l 568 619 l 568 494 l 201 494 l 201 403 l 569 401 l 569 215 l 476 215 l 476 124 l 385 124 l 385 1 l 260 1 l 260 122 l 76 122 l 76 247 l 444 247 l 444 340 q 260 340 351 340 q 76 339 168 339 l 76 526 l 168 526 l 168 619 l 260 619 z "},"\\":{"ha":726,"x_min":75,"x_max":663,"o":"m 200 753 l 200 629 l 293 629 l 293 504 l 386 504 l 386 379 l 479 379 l 479 254 l 569 254 l 569 126 l 663 126 l 663 3 l 539 3 l 539 115 l 446 115 l 446 243 l 356 243 l 356 369 l 263 369 l 263 493 l 168 493 l 168 618 l 75 618 l 75 753 l 200 753 z "},"/":{"ha":758,"x_min":97,"x_max":685,"o":"m 685 753 l 685 618 l 592 618 l 592 493 l 499 493 l 499 369 l 406 369 l 406 243 l 315 243 l 315 115 l 222 115 l 222 3 l 97 3 l 97 126 l 190 126 l 190 254 l 281 254 l 281 379 l 374 379 l 374 504 l 467 504 l 467 629 l 560 629 l 560 753 l 685 753 z "},"%":{"ha":1081,"x_min":69,"x_max":1014,"o":"m 911 360 l 911 268 l 1014 268 l 1014 90 l 911 90 l 911 0 l 760 0 l 760 90 l 657 90 l 657 268 l 760 268 l 760 360 l 911 360 m 322 753 l 322 661 l 425 661 l 425 483 l 322 483 l 322 393 l 172 393 l 172 483 l 69 483 l 69 661 l 172 661 l 172 753 l 322 753 m 188 518 l 307 518 l 307 626 l 188 626 l 188 518 m 836 753 l 836 618 l 743 618 l 743 493 l 650 493 l 650 369 l 557 369 l 557 243 l 467 243 l 467 115 l 374 115 l 374 3 l 249 3 l 249 126 l 343 126 l 343 254 l 433 254 l 433 379 l 526 379 l 526 504 l 619 504 l 619 629 l 713 629 l 713 753 l 836 753 m 775 125 l 896 125 l 896 233 l 775 233 l 775 125 z "},"^":{"ha":576,"x_min":107,"x_max":479,"o":"m 233 633 l 233 739 l 358 739 l 358 633 l 479 633 l 479 492 l 336 492 l 336 615 l 258 615 l 258 492 l 107 492 l 107 633 l 233 633 z "},"&":{"ha":757,"x_min":101,"x_max":706,"o":"m 101 92 l 101 401 l 196 401 l 196 482 l 106 482 l 106 647 l 211 647 l 211 739 l 493 739 l 493 647 l 593 647 l 593 490 l 475 490 l 475 615 l 224 615 l 224 492 l 343 492 l 343 365 l 475 365 l 475 242 l 603 242 l 603 129 l 706 129 l 706 3 l 574 3 l 574 115 l 475 115 l 475 0 l 207 0 l 207 92 l 101 92 m 315 239 l 315 364 l 219 364 l 219 125 l 435 125 l 435 239 l 315 239 z "},"*":{"ha":553,"x_min":100,"x_max":471,"o":"m 225 492 l 225 618 l 100 618 l 100 735 l 250 735 l 250 633 l 328 633 l 328 735 l 471 735 l 471 618 l 350 618 l 350 492 l 471 492 l 471 375 l 328 375 l 328 475 l 250 475 l 250 375 l 100 375 l 100 492 l 225 492 z "},"<":{"ha":583,"x_min":69,"x_max":500,"o":"m 404 254 l 404 126 l 497 126 l 497 3 l 374 3 l 374 115 l 281 115 l 281 243 l 190 243 l 190 301 l 69 301 l 69 436 l 190 436 l 190 504 l 283 504 l 283 629 l 376 629 l 376 753 l 500 753 l 500 618 l 407 618 l 407 493 l 314 493 l 314 254 l 404 254 z "},">":{"ha":624,"x_min":117,"x_max":547,"o":"m 213 501 l 213 628 l 119 628 l 119 753 l 243 753 l 243 640 l 336 640 l 336 513 l 426 513 l 426 453 l 547 453 l 547 319 l 426 319 l 426 251 l 333 251 l 333 126 l 240 126 l 240 3 l 117 3 l 117 136 l 210 136 l 210 263 l 303 263 l 303 501 l 213 501 z "},"¢":{"ha":686,"x_min":104,"x_max":593,"o":"m 593 618 l 593 493 l 471 493 l 471 251 l 593 251 l 593 126 l 471 126 l 471 1 l 347 1 l 347 126 l 207 126 l 207 217 l 104 217 l 104 526 l 207 526 l 207 618 l 347 618 l 347 742 l 471 742 l 471 618 l 593 618 m 347 251 l 347 493 l 222 493 l 222 251 l 347 251 z "},"[":{"ha":378,"x_min":88,"x_max":310,"o":"m 310 861 l 310 740 l 213 740 l 213 3 l 310 3 l 310 -118 l 88 -118 l 88 861 l 310 861 z "},"]":{"ha":410,"x_min":97,"x_max":319,"o":"m 97 -118 l 97 3 l 194 3 l 194 740 l 97 740 l 97 861 l 319 861 l 319 -118 l 97 -118 z "},"(":{"ha":386,"x_min":89,"x_max":311,"o":"m 186 757 l 186 861 l 311 861 l 311 740 l 214 740 l 214 3 l 311 3 l 311 -118 l 186 -118 l 186 -15 l 89 -15 l 89 757 l 186 757 z "},")":{"ha":394,"x_min":92,"x_max":314,"o":"m 217 -12 l 217 -118 l 92 -118 l 92 3 l 190 3 l 190 740 l 92 740 l 92 861 l 217 861 l 217 758 l 314 758 l 314 -12 l 217 -12 z "},"{":{"ha":419,"x_min":104,"x_max":326,"o":"m 200 271 l 200 456 l 104 456 l 104 753 l 201 753 l 201 861 l 326 861 l 326 740 l 229 740 l 229 483 l 325 483 l 325 247 l 229 247 l 229 3 l 326 3 l 326 -118 l 201 -118 l 201 -15 l 104 -15 l 104 271 l 200 271 z "},"}":{"ha":418,"x_min":106,"x_max":328,"o":"m 232 474 l 232 288 l 328 288 l 328 -10 l 231 -10 l 231 -118 l 106 -118 l 106 3 l 203 3 l 203 261 l 107 261 l 107 496 l 203 496 l 203 740 l 106 740 l 106 861 l 231 861 l 231 758 l 328 758 l 328 474 l 232 474 z "},"'":{"ha":306,"x_min":88,"x_max":213,"o":"m 213 739 l 213 486 l 88 486 l 88 739 l 213 739 z "},"“":{"ha":556,"x_min":88,"x_max":461,"o":"m 213 739 l 213 486 l 88 486 l 88 739 l 213 739 m 461 739 l 461 486 l 336 486 l 336 739 l 461 739 z "},"”":{"ha":557,"x_min":88,"x_max":461,"o":"m 213 739 l 213 486 l 88 486 l 88 739 l 213 739 m 461 739 l 461 486 l 336 486 l 336 739 l 461 739 z "},"‘":{"ha":310,"x_min":88,"x_max":213,"o":"m 213 739 l 213 486 l 88 486 l 88 739 l 213 739 z "},"’":{"ha":313,"x_min":88,"x_max":213,"o":"m 213 739 l 213 486 l 88 486 l 88 739 l 213 739 z "},"™":{"ha":953,"x_min":85,"x_max":872,"o":"m 396 654 l 279 654 l 279 263 l 200 263 l 200 654 l 85 654 l 85 733 l 396 733 l 396 654 m 560 735 l 560 656 l 607 656 l 607 576 l 657 576 l 657 500 l 696 500 l 696 576 l 746 576 l 746 656 l 793 656 l 793 735 l 872 735 l 872 264 l 793 264 l 793 576 l 767 576 l 767 497 l 713 497 l 713 419 l 639 419 l 639 497 l 585 497 l 585 576 l 560 576 l 560 264 l 481 264 l 481 735 l 560 735 z "},"…":{"ha":1042,"x_min":124,"x_max":944,"o":"m 250 128 l 250 1 l 124 1 l 124 128 l 250 128 m 597 128 l 597 1 l 471 1 l 471 128 l 597 128 m 944 128 l 944 1 l 818 1 l 818 128 l 944 128 z "},"`":{"ha":356,"x_min":71,"x_max":290,"o":"m 197 726 l 197 613 l 290 613 l 290 486 l 164 486 l 164 600 l 71 600 l 71 726 l 197 726 z "},"€":{"ha":803,"x_min":88,"x_max":686,"o":"m 686 739 l 686 613 l 318 613 l 318 546 l 582 544 l 582 419 l 318 419 l 318 306 l 582 304 l 582 181 l 318 181 l 318 124 l 682 124 l 682 -1 l 282 -1 l 282 88 l 194 88 l 194 181 l 88 181 l 89 308 l 194 307 l 194 419 l 88 419 l 89 547 l 194 546 l 194 644 l 282 644 l 282 739 l 686 739 z "}," ":{"ha":490,"x_min":0,"x_max":0,"o":""},";":{"ha":340,"x_min":97,"x_max":225,"o":"m 225 128 l 225 -125 l 100 -125 l 100 128 l 225 128 m 224 388 l 224 261 l 97 261 l 97 388 l 224 388 z "},":":{"ha":333,"x_min":97,"x_max":225,"o":"m 225 379 l 225 253 l 99 253 l 99 379 l 225 379 m 224 126 l 224 0 l 97 0 l 97 126 l 224 126 z "},"A":{"ha":663,"x_min":85,"x_max":578,"o":"m 483 739 l 483 644 l 578 644 l 578 0 l 453 0 l 453 244 l 210 244 l 210 0 l 85 0 l 85 644 l 185 644 l 185 739 l 483 739 m 453 614 l 210 614 l 210 369 l 453 369 l 453 614 z "}}}
